# xmcd
#
# Track frame offsets:
#	182
#	20155
#	38262
#	60355
#	76682
#	95562
#	110365
#	134337
#	153725
#	181332
#	211005
#
# Disc length: 3073
#
# Revision: 3
# Processed by: cddbd v1.5.1PL0 Copyright (c) Steve Scherf et al.
# Submitted via: EasyCD2 v3.00 - Copyright (c) 1997 Greg Leichner
# Normalized: r1:TSWAP
#
DISCID=810bff0b
DTITLE=Soul Music Collection - 12. - Black Brothers
DYEAR=1900
DGENRE=
TTITLE0=War - The Cisco Kid
TTITLE1=Marvin Gaye - Sexual Healing
TTITLE2=The Jacksons - Torture
TTITLE3=Curtis Mayfield - Superfly (Live)
TTITLE4=Neville Brothers - Sitting In Limbo
TTITLE5=Isaac Hayes - Theme From Shaft
TTITLE6=Marvin Gaye - Midnight Lady
TTITLE7=Bill Withers - Lean On Me
TTITLE8=Curtis Mayfield - Billy Jack
TTITLE9=George Clinton - Do Fries Go With That Shake
TTITLE10=War - The World Is A Ghetto
EXTD=by David K. (Opatija City) - Croatia
EXTT0=
EXTT1=
EXTT2=
EXTT3=
EXTT4=
EXTT5=
EXTT6=
EXTT7=
EXTT8=
EXTT9=
EXTT10=
PLAYORDER=
